<mxfile host="65bd71144e">
    <diagram id="hjj0nVwSJszTlttB0gga" name="Страница 1">
        <mxGraphModel dx="598" dy="548" grid="1" gridSize="10" guides="1" tooltips="1" connect="1" arrows="1" fold="1" page="1" pageScale="1" pageWidth="827" pageHeight="1169" math="0" shadow="0">
            <root>
                <mxCell id="0"/>
                <mxCell id="1" parent="0"/>
                <mxCell id="4" value="" style="edgeStyle=none;html=1;fontSize=18;" edge="1" parent="1" source="2" target="3">
                    <mxGeometry relative="1" as="geometry"/>
                </mxCell>
                <mxCell id="2" value="&lt;font style=&quot;font-size: 18px&quot;&gt;Начало&lt;/font&gt;" style="ellipse;whiteSpace=wrap;html=1;" vertex="1" parent="1">
                    <mxGeometry x="240" width="120" height="80" as="geometry"/>
                </mxCell>
                <mxCell id="6" value="" style="edgeStyle=none;html=1;fontSize=18;" edge="1" parent="1" source="3" target="5">
                    <mxGeometry relative="1" as="geometry"/>
                </mxCell>
                <mxCell id="3" value="&lt;font style=&quot;font-size: 18px&quot;&gt;&lt;font style=&quot;font-size: 18px&quot;&gt;Arr [ ]&lt;br&gt;&lt;/font&gt;&lt;font style=&quot;font-size: 18px&quot;&gt;i = 0&lt;br&gt;a = 0&lt;br&gt;Arr2&lt;br&gt;&lt;/font&gt;Arr2Length = 0&lt;br&gt;&lt;/font&gt;" style="whiteSpace=wrap;html=1;" vertex="1" parent="1">
                    <mxGeometry x="227.5" y="110" width="145" height="130" as="geometry"/>
                </mxCell>
                <mxCell id="23" value="" style="edgeStyle=none;html=1;fontSize=18;entryX=0.5;entryY=0;entryDx=0;entryDy=0;" edge="1" parent="1" source="5" target="46">
                    <mxGeometry relative="1" as="geometry">
                        <Array as="points">
                            <mxPoint x="520" y="330"/>
                            <mxPoint x="520" y="860"/>
                            <mxPoint x="300" y="860"/>
                        </Array>
                    </mxGeometry>
                </mxCell>
                <mxCell id="24" value="Нет" style="edgeLabel;html=1;align=center;verticalAlign=middle;resizable=0;points=[];fontSize=18;" vertex="1" connectable="0" parent="23">
                    <mxGeometry x="-0.829" y="3" relative="1" as="geometry">
                        <mxPoint as="offset"/>
                    </mxGeometry>
                </mxCell>
                <mxCell id="5" value="&lt;font style=&quot;font-size: 18px&quot;&gt;for i &amp;lt; Arr.Length&lt;br&gt;&lt;/font&gt;" style="rhombus;whiteSpace=wrap;html=1;" vertex="1" parent="1">
                    <mxGeometry x="217.51" y="280" width="165" height="100" as="geometry"/>
                </mxCell>
                <mxCell id="11" value="" style="edgeStyle=none;html=1;fontSize=18;startArrow=none;exitX=0.5;exitY=1;exitDx=0;exitDy=0;" edge="1" parent="1" source="7" target="10">
                    <mxGeometry relative="1" as="geometry">
                        <mxPoint x="300.0009966777409" y="674.5" as="sourcePoint"/>
                    </mxGeometry>
                </mxCell>
                <mxCell id="17" style="edgeStyle=none;html=1;exitX=1;exitY=0.5;exitDx=0;exitDy=0;entryX=1;entryY=0.5;entryDx=0;entryDy=0;fontSize=18;" edge="1" parent="1" source="7" target="14">
                    <mxGeometry relative="1" as="geometry">
                        <Array as="points">
                            <mxPoint x="480" y="585"/>
                            <mxPoint x="480" y="800"/>
                        </Array>
                    </mxGeometry>
                </mxCell>
                <mxCell id="18" value="Нет" style="edgeLabel;html=1;align=center;verticalAlign=middle;resizable=0;points=[];fontSize=18;" vertex="1" connectable="0" parent="17">
                    <mxGeometry x="-0.9034" y="2" relative="1" as="geometry">
                        <mxPoint x="1" as="offset"/>
                    </mxGeometry>
                </mxCell>
                <mxCell id="7" value="&lt;span style=&quot;font-size: 18px&quot;&gt;if&amp;nbsp;&lt;/span&gt;&lt;span style=&quot;font-size: 18px ; font-style: italic ; background-color: rgb(30 , 30 , 30) ; color: rgb(212 , 212 , 212) ; font-family: &amp;#34;consolas&amp;#34; , &amp;#34;courier new&amp;#34; , monospace&quot;&gt;a.Length &amp;lt;= 3&lt;/span&gt;" style="rhombus;whiteSpace=wrap;html=1;" vertex="1" parent="1">
                    <mxGeometry x="198.14" y="524.5" width="203.75" height="120" as="geometry"/>
                </mxCell>
                <mxCell id="39" value="" style="edgeStyle=none;html=1;fontSize=18;" edge="1" parent="1" source="9" target="37">
                    <mxGeometry relative="1" as="geometry"/>
                </mxCell>
                <mxCell id="9" value="Да" style="text;html=1;align=center;verticalAlign=middle;resizable=0;points=[];autosize=1;strokeColor=none;fillColor=none;fontSize=18;" vertex="1" parent="1">
                    <mxGeometry x="282.51" y="380" width="40" height="30" as="geometry"/>
                </mxCell>
                <mxCell id="58" value="" style="edgeStyle=none;html=1;fontSize=18;" edge="1" parent="1" source="10" target="14">
                    <mxGeometry relative="1" as="geometry"/>
                </mxCell>
                <mxCell id="10" value="&lt;span style=&quot;font-size: 18px&quot;&gt;Arr2Length =&amp;nbsp;&lt;/span&gt;&lt;span style=&quot;font-size: 18px&quot;&gt;Arr2Length +1&amp;nbsp;&lt;/span&gt;&lt;span style=&quot;font-size: 18px&quot;&gt;&lt;br&gt;&lt;/span&gt;" style="whiteSpace=wrap;html=1;" vertex="1" parent="1">
                    <mxGeometry x="158.75" y="680" width="282.5" height="40" as="geometry"/>
                </mxCell>
                <mxCell id="20" style="edgeStyle=none;html=1;fontSize=18;exitX=0;exitY=0.5;exitDx=0;exitDy=0;" edge="1" parent="1" source="14">
                    <mxGeometry relative="1" as="geometry">
                        <mxPoint x="300" y="250" as="targetPoint"/>
                        <Array as="points">
                            <mxPoint x="120" y="800"/>
                            <mxPoint x="120" y="720"/>
                            <mxPoint x="120" y="670"/>
                            <mxPoint x="120" y="250"/>
                        </Array>
                    </mxGeometry>
                </mxCell>
                <mxCell id="14" value="&lt;span&gt;i = i + 1&lt;/span&gt;" style="rounded=0;whiteSpace=wrap;html=1;fontSize=18;" vertex="1" parent="1">
                    <mxGeometry x="240" y="770" width="120" height="60" as="geometry"/>
                </mxCell>
                <mxCell id="45" value="" style="edgeStyle=none;html=1;fontSize=18;exitX=0.5;exitY=1;exitDx=0;exitDy=0;exitPerimeter=0;" edge="1" parent="1" source="22" target="41">
                    <mxGeometry relative="1" as="geometry">
                        <mxPoint x="300" y="1169" as="sourcePoint"/>
                    </mxGeometry>
                </mxCell>
                <mxCell id="57" value="" style="edgeStyle=none;html=1;fontSize=18;exitX=1;exitY=0.5;exitDx=0;exitDy=0;entryX=0.5;entryY=0;entryDx=0;entryDy=0;" edge="1" parent="1" source="22" target="56">
                    <mxGeometry relative="1" as="geometry">
                        <Array as="points">
                            <mxPoint x="520" y="1050"/>
                            <mxPoint x="520" y="1550"/>
                            <mxPoint x="303" y="1550"/>
                        </Array>
                    </mxGeometry>
                </mxCell>
                <mxCell id="22" value="&lt;font style=&quot;font-size: 18px&quot;&gt;for i &amp;lt; Arr.Length&lt;br&gt;&lt;/font&gt;" style="rhombus;whiteSpace=wrap;html=1;" vertex="1" parent="1">
                    <mxGeometry x="217.5" y="1000" width="165" height="100" as="geometry"/>
                </mxCell>
                <mxCell id="51" value="" style="edgeStyle=none;html=1;fontSize=18;" edge="1" parent="1" source="27" target="31">
                    <mxGeometry relative="1" as="geometry"/>
                </mxCell>
                <mxCell id="62" style="edgeStyle=none;html=1;exitX=1;exitY=0.5;exitDx=0;exitDy=0;fontSize=18;entryX=1;entryY=0.5;entryDx=0;entryDy=0;" edge="1" parent="1" source="27" target="42">
                    <mxGeometry relative="1" as="geometry">
                        <mxPoint x="440" y="1560" as="targetPoint"/>
                        <Array as="points">
                            <mxPoint x="440" y="1290"/>
                            <mxPoint x="440" y="1500"/>
                        </Array>
                    </mxGeometry>
                </mxCell>
                <mxCell id="27" value="&lt;span style=&quot;font-size: 18px&quot;&gt;if&amp;nbsp;&lt;/span&gt;&lt;span style=&quot;font-size: 18px ; font-style: italic ; background-color: rgb(30 , 30 , 30) ; color: rgb(212 , 212 , 212) ; font-family: &amp;#34;consolas&amp;#34; , &amp;#34;courier new&amp;#34; , monospace&quot;&gt;a.Length &amp;lt;= 3&lt;/span&gt;" style="rhombus;whiteSpace=wrap;html=1;" vertex="1" parent="1">
                    <mxGeometry x="205" y="1250" width="190" height="80" as="geometry"/>
                </mxCell>
                <mxCell id="43" value="" style="edgeStyle=none;html=1;fontSize=18;" edge="1" parent="1" source="31" target="42">
                    <mxGeometry relative="1" as="geometry"/>
                </mxCell>
                <mxCell id="31" value="&lt;font style=&quot;font-size: 18px&quot;&gt;Arr2[ i ] = a&lt;/font&gt;" style="whiteSpace=wrap;html=1;" vertex="1" parent="1">
                    <mxGeometry x="242.51" y="1380" width="120" height="60" as="geometry"/>
                </mxCell>
                <mxCell id="36" value="" style="edgeStyle=none;html=1;fontSize=18;endArrow=none;" edge="1" parent="1" source="7">
                    <mxGeometry relative="1" as="geometry">
                        <mxPoint x="300.4326260209375" y="539.7481466379752" as="sourcePoint"/>
                        <mxPoint x="300.00300000000016" y="644.5" as="targetPoint"/>
                    </mxGeometry>
                </mxCell>
                <mxCell id="38" value="" style="edgeStyle=none;html=1;fontSize=18;" edge="1" parent="1" source="37" target="7">
                    <mxGeometry relative="1" as="geometry"/>
                </mxCell>
                <mxCell id="37" value="Arr [i] = a" style="rounded=0;whiteSpace=wrap;html=1;fontSize=18;" vertex="1" parent="1">
                    <mxGeometry x="240" y="430" width="120" height="60" as="geometry"/>
                </mxCell>
                <mxCell id="44" value="" style="edgeStyle=none;html=1;fontSize=18;entryX=0.5;entryY=0;entryDx=0;entryDy=0;" edge="1" parent="1" source="41" target="27">
                    <mxGeometry relative="1" as="geometry">
                        <mxPoint x="300.50342105263167" y="1259" as="targetPoint"/>
                    </mxGeometry>
                </mxCell>
                <mxCell id="41" value="&lt;span&gt;Arr [ i ] = a&lt;/span&gt;" style="rounded=0;whiteSpace=wrap;html=1;fontSize=18;" vertex="1" parent="1">
                    <mxGeometry x="240" y="1160" width="120" height="60" as="geometry"/>
                </mxCell>
                <mxCell id="49" style="edgeStyle=none;html=1;exitX=0;exitY=0.5;exitDx=0;exitDy=0;fontSize=18;" edge="1" parent="1" source="42">
                    <mxGeometry relative="1" as="geometry">
                        <mxPoint x="300" y="970" as="targetPoint"/>
                        <Array as="points">
                            <mxPoint x="160" y="1500"/>
                            <mxPoint x="160" y="970"/>
                        </Array>
                    </mxGeometry>
                </mxCell>
                <mxCell id="42" value="&lt;font style=&quot;font-size: 18px&quot;&gt;i = i + 1&lt;/font&gt;" style="whiteSpace=wrap;html=1;" vertex="1" parent="1">
                    <mxGeometry x="242.51" y="1470" width="120" height="60" as="geometry"/>
                </mxCell>
                <mxCell id="48" value="" style="edgeStyle=none;html=1;fontSize=18;" edge="1" parent="1" source="46" target="22">
                    <mxGeometry relative="1" as="geometry"/>
                </mxCell>
                <mxCell id="46" value="i = 0" style="rounded=0;whiteSpace=wrap;html=1;fontSize=18;" vertex="1" parent="1">
                    <mxGeometry x="240" y="890" width="120" height="60" as="geometry"/>
                </mxCell>
                <mxCell id="54" value="Да" style="text;html=1;strokeColor=none;fillColor=none;align=center;verticalAlign=middle;whiteSpace=wrap;rounded=0;fontSize=18;" vertex="1" parent="1">
                    <mxGeometry x="272.51" y="1340" width="60" height="30" as="geometry"/>
                </mxCell>
                <mxCell id="55" value="Да" style="text;html=1;strokeColor=none;fillColor=none;align=center;verticalAlign=middle;whiteSpace=wrap;rounded=0;fontSize=18;" vertex="1" parent="1">
                    <mxGeometry x="270" y="1110" width="60" height="30" as="geometry"/>
                </mxCell>
                <mxCell id="56" value="&lt;font style=&quot;font-size: 18px&quot;&gt;Финал&lt;/font&gt;" style="ellipse;whiteSpace=wrap;html=1;" vertex="1" parent="1">
                    <mxGeometry x="242.51" y="1580" width="120" height="60" as="geometry"/>
                </mxCell>
                <mxCell id="53" value="Нет" style="text;html=1;strokeColor=none;fillColor=none;align=center;verticalAlign=middle;whiteSpace=wrap;rounded=0;fontSize=18;" vertex="1" parent="1">
                    <mxGeometry x="384" y="1260" width="60" height="30" as="geometry"/>
                </mxCell>
                <mxCell id="60" value="Нет" style="text;html=1;strokeColor=none;fillColor=none;align=center;verticalAlign=middle;whiteSpace=wrap;rounded=0;fontSize=18;" vertex="1" parent="1">
                    <mxGeometry x="372.5" y="1010" width="60" height="30" as="geometry"/>
                </mxCell>
            </root>
        </mxGraphModel>
    </diagram>
</mxfile>